<svg xmlns="http://www.w3.org/2000/svg" xmlns:xlink="http://www.w3.org/1999/xlink" width="500" zoomAndPan="magnify" viewBox="0 0 375 374.999991" height="500" preserveAspectRatio="xMidYMid meet" version="1.0"><defs><g/><clipPath id="7d4967cac6"><path d="M 281.628906 120.875 L 335.628906 120.875 L 335.628906 228.875 L 281.628906 228.875 Z M 281.628906 120.875 " clip-rule="nonzero"/></clipPath><clipPath id="80b3f86ac2"><path d="M 37.5 122.3125 L 91.5 122.3125 L 91.5 230.3125 L 37.5 230.3125 Z M 37.5 122.3125 " clip-rule="nonzero"/></clipPath><clipPath id="bb1d3afbca"><path d="M 171.574219 63.464844 L 279.574219 63.464844 L 279.574219 117.464844 L 171.574219 117.464844 Z M 171.574219 63.464844 " clip-rule="nonzero"/></clipPath><clipPath id="2ba1cfb385"><path d="M 91.570312 64.722656 L 197.320312 64.722656 L 197.320312 117.222656 L 91.570312 117.222656 Z M 91.570312 64.722656 " clip-rule="nonzero"/></clipPath><clipPath id="50be518e10"><path d="M 91.695312 234.878906 L 199.695312 234.878906 L 199.695312 288.878906 L 91.695312 288.878906 Z M 91.695312 234.878906 " clip-rule="nonzero"/></clipPath><clipPath id="cb79e105d6"><path d="M 174 235.125 L 279.703125 235.125 L 279.703125 287.625 L 174 287.625 Z M 174 235.125 " clip-rule="nonzero"/></clipPath></defs><rect x="-37.5" width="450" fill="#ffffff" y="-37.499999" height="449.999989" fill-opacity="1"/><rect x="-37.5" width="450" fill="#000000" y="-37.499999" height="449.999989" fill-opacity="1"/><g fill="#ffbd59" fill-opacity="1"><g transform="translate(95.999998, 173.183895)"><g><path d="M 1.859375 -42 L 36.65625 -42 L 36.65625 -27.84375 L 27.953125 -27.84375 L 27.953125 -26.046875 L 36.65625 -26.046875 L 36.65625 -12.546875 L 27.234375 -12.546875 L 27.234375 0 L 1.859375 0 Z M 1.859375 -42 "/></g></g></g><g fill="#ffbd59" fill-opacity="1"><g transform="translate(134.399959, 173.183895)"><g><path d="M 1.734375 -42 L 23.578125 -42 L 23.578125 0 L 1.734375 0 Z M 1.734375 -42 "/></g></g></g><g fill="#ffbd59" fill-opacity="1"><g transform="translate(159.779932, 173.183895)"><g><path d="M 1.734375 -42.0625 L 36.546875 -42.0625 L 36.546875 -27.90625 L 27.84375 -27.90625 L 27.84375 -26.09375 L 36.546875 -26.09375 L 36.546875 -16.015625 L 27.84375 -16.015625 L 27.84375 -14.21875 L 36.546875 -14.21875 L 36.546875 -0.0625 L 1.734375 -0.0625 Z M 1.734375 -42.0625 "/></g></g></g><g fill="#ffbd59" fill-opacity="1"><g transform="translate(198.05989, 173.183895)"><g><path d="M 22.796875 -21 L 34.4375 -21 L 34.4375 0 L 1.796875 0 L 1.796875 -42 L 22.796875 -42 Z M 22.796875 -21 "/></g></g></g><g fill="#ffbd59" fill-opacity="1"><g transform="translate(234.119855, 173.183895)"><g><path d="M 22.796875 0.0625 L 1.796875 0.0625 L 1.796875 -42 L 22.796875 -42 C 25.679688 -42 28.390625 -41.445312 30.921875 -40.34375 C 33.460938 -39.25 35.703125 -37.738281 37.640625 -35.8125 C 39.585938 -33.894531 41.097656 -31.65625 42.171875 -29.09375 C 43.253906 -26.539062 43.796875 -23.820312 43.796875 -20.9375 C 43.796875 -18.0625 43.253906 -15.351562 42.171875 -12.8125 C 41.097656 -10.269531 39.585938 -8.03125 37.640625 -6.09375 C 35.703125 -4.15625 33.460938 -2.644531 30.921875 -1.5625 C 28.390625 -0.476562 25.679688 0.0625 22.796875 0.0625 Z M 22.796875 0.0625 "/></g></g></g><g fill="#ffbd59" fill-opacity="1"><g transform="translate(95.897426, 219.444038)"><g><path d="M 22.984375 0.0625 L 1.8125 0.0625 L 1.8125 -42.34375 L 22.984375 -42.34375 C 25.890625 -42.34375 28.625 -41.785156 31.1875 -40.671875 C 33.75 -39.566406 36.003906 -38.046875 37.953125 -36.109375 C 39.910156 -34.179688 41.4375 -31.925781 42.53125 -29.34375 C 43.625 -26.757812 44.171875 -24.015625 44.171875 -21.109375 C 44.171875 -18.210938 43.625 -15.484375 42.53125 -12.921875 C 41.4375 -10.359375 39.910156 -8.097656 37.953125 -6.140625 C 36.003906 -4.179688 33.75 -2.65625 31.1875 -1.5625 C 28.625 -0.476562 25.890625 0.0625 22.984375 0.0625 Z M 22.984375 0.0625 "/></g></g></g><g fill="#ffbd59" fill-opacity="1"><g transform="translate(141.1456, 219.444038)"><g><path d="M -1.6875 0 L 25.046875 -45.3125 L 51.78125 0 Z M -1.6875 0 "/></g></g></g><g fill="#ffbd59" fill-opacity="1"><g transform="translate(191.051679, 219.444038)"><g><path d="M 1.6875 0.0625 L 9.5 -22.015625 L 1.6875 -22.015625 L 1.6875 -42.34375 L 44.046875 -42.34375 L 36.234375 -20.203125 L 44.046875 -20.203125 L 44.046875 0.0625 Z M 1.6875 0.0625 "/></g></g></g><g fill="#ffbd59" fill-opacity="1"><g transform="translate(236.783789, 219.444038)"><g><path d="M 1.75 -42.40625 L 36.84375 -42.40625 L 36.84375 -28.125 L 28.078125 -28.125 L 28.078125 -26.3125 L 36.84375 -26.3125 L 36.84375 -16.15625 L 28.078125 -16.15625 L 28.078125 -14.34375 L 36.84375 -14.34375 L 36.84375 -0.0625 L 1.75 -0.0625 Z M 1.75 -42.40625 "/></g></g></g><g clip-path="url(#7d4967cac6)"><path fill="#99f0ff" d="M 281.570312 192.476562 L 281.570312 189.46875 C 289.574219 189.46875 296.101562 182.960938 296.101562 174.941406 C 296.101562 166.917969 289.574219 160.410156 281.570312 160.410156 L 281.570312 157.402344 C 291.238281 157.402344 299.109375 165.273438 299.109375 174.941406 C 299.109375 184.605469 291.238281 192.476562 281.570312 192.476562 Z M 306.417969 174.941406 C 306.417969 161.230469 295.28125 150.09375 281.570312 150.09375 L 281.570312 153.101562 C 293.617188 153.101562 303.410156 162.894531 303.410156 174.941406 C 303.410156 186.984375 293.617188 196.78125 281.570312 196.78125 L 281.570312 199.785156 C 295.28125 199.785156 306.417969 188.648438 306.417969 174.941406 Z M 313.726562 174.941406 C 313.726562 157.207031 299.304688 142.785156 281.570312 142.785156 L 281.570312 145.792969 C 297.636719 145.792969 310.699219 158.851562 310.699219 174.917969 C 310.699219 190.984375 297.636719 204.066406 281.570312 204.066406 L 281.570312 207.070312 C 299.304688 207.09375 313.726562 192.671875 313.726562 174.941406 Z M 321.035156 174.941406 C 321.035156 153.1875 303.324219 135.476562 281.570312 135.476562 L 281.570312 138.484375 C 301.660156 138.484375 318.007812 154.828125 318.007812 174.917969 C 318.007812 195.007812 301.660156 211.355469 281.570312 211.355469 L 281.570312 214.359375 C 303.324219 214.402344 321.035156 196.691406 321.035156 174.941406 Z M 314.632812 208 C 323.457031 199.179688 328.320312 187.4375 328.320312 174.941406 C 328.320312 162.441406 323.457031 150.699219 314.632812 141.878906 C 305.8125 133.054688 294.070312 128.191406 281.570312 128.191406 L 281.570312 131.195312 C 305.683594 131.195312 325.316406 150.808594 325.316406 174.941406 C 325.316406 199.070312 305.683594 218.683594 281.570312 218.683594 L 281.570312 221.691406 C 294.070312 221.691406 305.8125 216.824219 314.632812 208 Z M 319.800781 213.167969 C 330.007812 202.964844 335.628906 189.382812 335.628906 174.941406 C 335.628906 160.496094 330.007812 146.914062 319.800781 136.710938 C 309.597656 126.503906 296.015625 120.882812 281.570312 120.882812 L 281.570312 123.886719 C 295.214844 123.886719 308.015625 129.207031 317.660156 138.828125 C 327.304688 148.496094 332.625 161.296875 332.625 174.941406 C 332.625 188.585938 327.304688 201.386719 317.683594 211.027344 C 308.039062 220.671875 295.214844 225.972656 281.59375 225.972656 L 281.59375 229 C 296.015625 229 309.597656 223.375 319.800781 213.167969 Z M 319.800781 213.167969 " fill-opacity="1" fill-rule="nonzero"/></g><g clip-path="url(#80b3f86ac2)"><path fill="#99f0ff" d="M 91.558594 158.710938 L 91.558594 161.714844 C 83.558594 161.714844 77.027344 168.226562 77.027344 176.246094 C 77.027344 184.269531 83.558594 190.777344 91.558594 190.777344 L 91.558594 193.785156 C 81.894531 193.785156 74.023438 185.914062 74.023438 176.246094 C 74.023438 166.582031 81.894531 158.710938 91.558594 158.710938 Z M 66.714844 176.246094 C 66.714844 189.957031 77.851562 201.09375 91.558594 201.09375 L 91.558594 198.085938 C 79.515625 198.085938 69.71875 188.292969 69.71875 176.246094 C 69.71875 164.203125 79.515625 154.40625 91.558594 154.40625 L 91.558594 151.402344 C 77.851562 151.402344 66.714844 162.539062 66.714844 176.246094 Z M 59.40625 176.246094 C 59.40625 193.980469 73.828125 208.402344 91.558594 208.402344 L 91.558594 205.394531 C 75.492188 205.394531 62.433594 192.335938 62.433594 176.269531 C 62.433594 160.203125 75.492188 147.121094 91.558594 147.121094 L 91.558594 144.113281 C 73.828125 144.09375 59.40625 158.515625 59.40625 176.246094 Z M 52.097656 176.246094 C 52.097656 198 69.804688 215.710938 91.558594 215.710938 L 91.558594 212.703125 C 71.472656 212.703125 55.125 196.355469 55.125 176.269531 C 55.125 156.179688 71.472656 139.832031 91.558594 139.832031 L 91.558594 136.828125 C 69.804688 136.785156 52.097656 154.496094 52.097656 176.246094 Z M 58.496094 143.183594 C 49.675781 152.007812 44.808594 163.75 44.808594 176.246094 C 44.808594 188.746094 49.675781 200.488281 58.496094 209.308594 C 67.320312 218.132812 79.0625 222.996094 91.558594 222.996094 L 91.558594 219.992188 C 67.449219 219.992188 47.816406 200.378906 47.816406 176.246094 C 47.816406 152.117188 67.449219 132.503906 91.558594 132.503906 L 91.558594 129.496094 C 79.0625 129.496094 67.320312 134.363281 58.496094 143.183594 Z M 53.328125 138.015625 C 43.121094 148.222656 37.5 161.804688 37.5 176.246094 C 37.5 190.691406 43.121094 204.269531 53.328125 214.476562 C 63.535156 224.683594 77.113281 230.304688 91.558594 230.304688 L 91.558594 227.300781 C 77.914062 227.300781 65.113281 221.980469 55.46875 212.359375 C 45.824219 202.691406 40.507812 189.890625 40.507812 176.246094 C 40.507812 162.601562 45.824219 149.800781 55.449219 140.15625 C 65.09375 130.515625 77.914062 125.214844 91.539062 125.214844 L 91.539062 122.1875 C 77.113281 122.1875 63.535156 127.8125 53.328125 138.015625 Z M 53.328125 138.015625 " fill-opacity="1" fill-rule="nonzero"/></g><g clip-path="url(#bb1d3afbca)"><path fill="#99f0ff" d="M 243.175781 117.523438 L 240.167969 117.523438 C 240.167969 109.523438 233.660156 102.992188 225.636719 102.992188 C 217.617188 102.992188 211.105469 109.523438 211.105469 117.523438 L 208.101562 117.523438 C 208.101562 107.859375 215.972656 99.988281 225.636719 99.988281 C 235.304688 99.988281 243.175781 107.859375 243.175781 117.523438 Z M 225.636719 92.679688 C 211.929688 92.679688 200.792969 103.816406 200.792969 117.523438 L 203.796875 117.523438 C 203.796875 105.480469 213.59375 95.683594 225.636719 95.683594 C 237.683594 95.683594 247.476562 105.480469 247.476562 117.523438 L 250.484375 117.523438 C 250.484375 103.816406 239.347656 92.679688 225.636719 92.679688 Z M 225.636719 85.371094 C 207.90625 85.371094 193.484375 99.792969 193.484375 117.523438 L 196.488281 117.523438 C 196.488281 101.457031 209.550781 88.398438 225.617188 88.398438 C 241.683594 88.398438 254.765625 101.457031 254.765625 117.523438 L 257.769531 117.523438 C 257.792969 99.792969 243.371094 85.371094 225.636719 85.371094 Z M 225.636719 78.0625 C 203.886719 78.0625 186.175781 95.769531 186.175781 117.523438 L 189.179688 117.523438 C 189.179688 97.4375 205.527344 81.089844 225.617188 81.089844 C 245.703125 81.089844 262.050781 97.4375 262.050781 117.523438 L 265.058594 117.523438 C 265.101562 95.769531 247.390625 78.0625 225.636719 78.0625 Z M 258.699219 84.460938 C 249.878906 75.640625 238.136719 70.773438 225.636719 70.773438 C 213.140625 70.773438 201.398438 75.640625 192.574219 84.460938 C 183.753906 93.285156 178.886719 105.027344 178.886719 117.523438 L 181.894531 117.523438 C 181.894531 93.414062 201.507812 73.78125 225.636719 73.78125 C 249.769531 73.78125 269.382812 93.414062 269.382812 117.523438 L 272.386719 117.523438 C 272.386719 105.027344 267.523438 93.285156 258.699219 84.460938 Z M 263.867188 79.292969 C 253.660156 69.089844 240.082031 63.464844 225.636719 63.464844 C 211.195312 63.464844 197.613281 69.089844 187.40625 79.292969 C 177.203125 89.5 171.578125 103.078125 171.578125 117.523438 L 174.585938 117.523438 C 174.585938 103.878906 179.90625 91.078125 189.527344 81.433594 C 199.191406 71.789062 211.992188 66.472656 225.636719 66.472656 C 239.28125 66.472656 252.082031 71.789062 261.726562 81.414062 C 271.371094 91.058594 276.667969 103.878906 276.667969 117.503906 L 279.695312 117.503906 C 279.695312 103.078125 274.074219 89.5 263.867188 79.292969 Z M 263.867188 79.292969 " fill-opacity="1" fill-rule="nonzero"/></g><g clip-path="url(#2ba1cfb385)"><path fill="#99f0ff" d="M 161.507812 117.527344 L 158.574219 117.527344 C 158.574219 109.710938 152.214844 103.332031 144.378906 103.332031 C 136.542969 103.332031 130.183594 109.710938 130.183594 117.527344 L 127.25 117.527344 C 127.25 108.085938 134.9375 100.398438 144.378906 100.398438 C 153.820312 100.398438 161.507812 108.085938 161.507812 117.527344 Z M 144.378906 93.257812 C 130.988281 93.257812 120.109375 104.136719 120.109375 117.527344 L 123.046875 117.527344 C 123.046875 105.761719 132.613281 96.195312 144.378906 96.195312 C 156.144531 96.195312 165.710938 105.761719 165.710938 117.527344 L 168.648438 117.527344 C 168.648438 104.136719 157.769531 93.257812 144.378906 93.257812 Z M 144.378906 86.117188 C 127.058594 86.117188 112.972656 100.207031 112.972656 117.527344 L 115.90625 117.527344 C 115.90625 101.832031 128.664062 89.074219 144.359375 89.074219 C 160.050781 89.074219 172.832031 101.832031 172.832031 117.527344 L 175.765625 117.527344 C 175.789062 100.207031 161.699219 86.117188 144.378906 86.117188 Z M 144.378906 78.980469 C 123.128906 78.980469 105.832031 96.277344 105.832031 117.527344 L 108.769531 117.527344 C 108.769531 97.90625 124.734375 81.9375 144.359375 81.9375 C 163.980469 81.9375 179.949219 97.90625 179.949219 117.527344 L 182.882812 117.527344 C 182.925781 96.277344 165.628906 78.980469 144.378906 78.980469 Z M 176.675781 85.230469 C 168.058594 76.613281 156.585938 71.859375 144.378906 71.859375 C 132.171875 71.859375 120.703125 76.613281 112.082031 85.230469 C 103.464844 93.847656 98.714844 105.316406 98.714844 117.527344 L 101.648438 117.527344 C 101.648438 93.976562 120.808594 74.796875 144.378906 74.796875 C 167.949219 74.796875 187.109375 93.976562 187.109375 117.527344 L 190.042969 117.527344 C 190.042969 105.316406 185.292969 93.847656 176.675781 85.230469 Z M 181.722656 80.183594 C 171.753906 70.214844 158.488281 64.722656 144.378906 64.722656 C 130.269531 64.722656 117.003906 70.214844 107.035156 80.183594 C 97.066406 90.152344 91.574219 103.417969 91.574219 117.527344 L 94.511719 117.527344 C 94.511719 104.199219 99.707031 91.695312 109.105469 82.273438 C 118.546875 72.855469 131.050781 67.65625 144.378906 67.65625 C 157.707031 67.65625 170.210938 72.855469 179.632812 82.253906 C 189.050781 91.671875 194.226562 104.199219 194.226562 117.503906 L 197.183594 117.503906 C 197.183594 103.417969 191.691406 90.152344 181.722656 80.183594 Z M 181.722656 80.183594 " fill-opacity="1" fill-rule="nonzero"/></g><g clip-path="url(#50be518e10)"><path fill="#99f0ff" d="M 128.09375 234.820312 L 131.101562 234.820312 C 131.101562 242.820312 137.609375 249.351562 145.632812 249.351562 C 153.652344 249.351562 160.164062 242.820312 160.164062 234.820312 L 163.167969 234.820312 C 163.167969 244.488281 155.296875 252.359375 145.632812 252.359375 C 135.964844 252.359375 128.09375 244.488281 128.09375 234.820312 Z M 145.632812 259.667969 C 159.339844 259.667969 170.476562 248.53125 170.476562 234.820312 L 167.472656 234.820312 C 167.472656 246.863281 157.675781 256.660156 145.632812 256.660156 C 133.585938 256.660156 123.792969 246.863281 123.792969 234.820312 L 120.785156 234.820312 C 120.785156 248.53125 131.921875 259.667969 145.632812 259.667969 Z M 145.632812 266.976562 C 163.363281 266.976562 177.785156 252.550781 177.785156 234.820312 L 174.78125 234.820312 C 174.78125 250.886719 161.71875 263.949219 145.652344 263.949219 C 129.585938 263.949219 116.503906 250.886719 116.503906 234.820312 L 113.5 234.820312 C 113.476562 252.550781 127.902344 266.976562 145.632812 266.976562 Z M 145.632812 274.285156 C 167.386719 274.285156 185.09375 256.574219 185.09375 234.820312 L 182.089844 234.820312 C 182.089844 254.910156 165.742188 271.257812 145.652344 271.257812 C 125.566406 271.257812 109.21875 254.910156 109.21875 234.820312 L 106.210938 234.820312 C 106.167969 256.574219 123.878906 274.285156 145.632812 274.285156 Z M 112.570312 267.882812 C 121.390625 276.707031 133.132812 281.570312 145.632812 281.570312 C 158.128906 281.570312 169.871094 276.707031 178.695312 267.882812 C 187.515625 259.0625 192.382812 247.320312 192.382812 234.820312 L 189.375 234.820312 C 189.375 258.929688 169.761719 278.566406 145.632812 278.566406 C 121.5 278.566406 101.886719 258.929688 101.886719 234.820312 L 98.882812 234.820312 C 98.882812 247.320312 103.746094 259.0625 112.570312 267.882812 Z M 107.402344 273.050781 C 117.609375 283.257812 131.1875 288.878906 145.632812 288.878906 C 160.078125 288.878906 173.65625 283.257812 183.863281 273.050781 C 194.066406 262.84375 199.691406 249.265625 199.691406 234.820312 L 196.683594 234.820312 C 196.683594 248.464844 191.367188 261.265625 181.742188 270.910156 C 172.078125 280.554688 159.277344 285.875 145.632812 285.875 C 131.988281 285.875 119.1875 280.554688 109.542969 270.933594 C 99.898438 261.289062 94.601562 248.464844 94.601562 234.84375 L 91.574219 234.84375 C 91.574219 249.265625 97.195312 262.84375 107.402344 273.050781 Z M 107.402344 273.050781 " fill-opacity="1" fill-rule="nonzero"/></g><g clip-path="url(#cb79e105d6)"><path fill="#99f0ff" d="M 209.761719 234.820312 L 212.695312 234.820312 C 212.695312 242.632812 219.054688 249.011719 226.890625 249.011719 C 234.726562 249.011719 241.085938 242.632812 241.085938 234.820312 L 244.019531 234.820312 C 244.019531 244.261719 236.332031 251.949219 226.890625 251.949219 C 217.449219 251.949219 209.761719 244.261719 209.761719 234.820312 Z M 226.890625 259.085938 C 240.28125 259.085938 251.160156 248.210938 251.160156 234.820312 L 248.222656 234.820312 C 248.222656 246.582031 238.65625 256.152344 226.890625 256.152344 C 215.125 256.152344 205.558594 246.582031 205.558594 234.820312 L 202.621094 234.820312 C 202.621094 248.210938 213.5 259.085938 226.890625 259.085938 Z M 226.890625 266.226562 C 244.210938 266.226562 258.300781 252.140625 258.300781 234.820312 L 255.363281 234.820312 C 255.363281 250.511719 242.605469 263.269531 226.910156 263.269531 C 211.21875 263.269531 198.441406 250.511719 198.441406 234.820312 L 195.503906 234.820312 C 195.484375 252.140625 209.570312 266.226562 226.890625 266.226562 Z M 226.890625 273.367188 C 248.140625 273.367188 265.4375 256.066406 265.4375 234.820312 L 262.503906 234.820312 C 262.503906 254.441406 246.535156 270.410156 226.910156 270.410156 C 207.289062 270.410156 191.320312 254.441406 191.320312 234.820312 L 188.386719 234.820312 C 188.34375 256.066406 205.640625 273.367188 226.890625 273.367188 Z M 194.59375 267.113281 C 203.214844 275.730469 214.683594 280.484375 226.890625 280.484375 C 239.097656 280.484375 250.570312 275.730469 259.1875 267.113281 C 267.804688 258.496094 272.554688 247.027344 272.554688 234.820312 L 269.621094 234.820312 C 269.621094 258.371094 250.460938 277.546875 226.890625 277.546875 C 203.320312 277.546875 184.160156 258.371094 184.160156 234.820312 L 181.226562 234.820312 C 181.226562 247.027344 185.976562 258.496094 194.59375 267.113281 Z M 189.546875 272.164062 C 199.515625 282.132812 212.78125 287.625 226.890625 287.625 C 241 287.625 254.265625 282.132812 264.234375 272.164062 C 274.203125 262.191406 279.695312 248.929688 279.695312 234.820312 L 276.757812 234.820312 C 276.757812 248.148438 271.5625 260.652344 262.164062 270.070312 C 252.722656 279.492188 240.21875 284.6875 226.890625 284.6875 C 213.5625 284.6875 201.058594 279.492188 191.636719 270.09375 C 182.21875 260.671875 177.042969 248.148438 177.042969 234.839844 L 174.085938 234.839844 C 174.085938 248.929688 179.578125 262.191406 189.546875 272.164062 Z M 189.546875 272.164062 " fill-opacity="1" fill-rule="nonzero"/></g></svg>